<svg version="1.1" xmlns="http://www.w3.org/2000/svg" viewBox="0 0 1033 403" width="2066" height="806">
  <!-- svg-source:excalidraw -->
  
  <defs>
    <style class="style-fonts">
      @font-face {
        font-family: "Virgil";
        src: url("https://excalidraw.com/Virgil.woff2");
      }
      @font-face {
        font-family: "Cascadia";
        src: url("https://excalidraw.com/Cascadia.woff2");
      }
      @font-face {
        font-family: "Assistant";
        src: url("https://excalidraw.com/Assistant-Regular.woff2");
      }
    </style>
    
  </defs>
  <rect x="0" y="0" width="1033" height="403" fill="#ffffff"></rect><g stroke-linecap="round" transform="translate(531 20) rotate(0 90.5 110.5)"><path d="M7.86 8.16 C7.86 8.16, 7.86 8.16, 7.86 8.16 M7.86 8.16 C7.86 8.16, 7.86 8.16, 7.86 8.16 M1.43 27.75 C8.7 15.96, 20.76 8.61, 24.4 1.33 M1.43 27.75 C7 22.06, 11.7 15.42, 24.4 1.33 M0.91 40.54 C12.22 30.77, 18.5 20.61, 36.34 -0.21 M0.91 40.54 C10.22 28.27, 20.96 18.38, 36.34 -0.21 M1.04 52.58 C11.83 39.75, 27.38 24.11, 46.31 0.51 M1.04 52.58 C18.61 32.09, 35.78 11.94, 46.31 0.51 M1.18 64.62 C19.35 45.22, 37.7 23.97, 56.94 0.47 M1.18 64.62 C16.34 45.67, 33.36 26.83, 56.94 0.47 M0.65 77.42 C23.61 49.8, 47.34 22.08, 67.57 0.44 M0.65 77.42 C22.86 50.31, 46.43 24.61, 67.57 0.44 M0.79 89.46 C29.36 53.96, 58.98 20.03, 78.2 0.41 M0.79 89.46 C30.24 54.7, 61.41 21.65, 78.2 0.41 M0.92 101.5 C31.48 62.5, 65.89 26.33, 88.83 0.37 M0.92 101.5 C22.67 75.66, 45.77 51.01, 88.83 0.37 M1.05 113.54 C37.69 75.02, 69.16 32.37, 99.46 0.34 M1.05 113.54 C40.12 68.87, 77.44 26.4, 99.46 0.34 M0.53 126.34 C26.21 96.91, 49.43 66.37, 110.09 0.3 M0.53 126.34 C43.53 77.71, 85.67 30.44, 110.09 0.3 M0.66 138.38 C33.71 98.92, 66.97 58.05, 120.72 0.27 M0.66 138.38 C26.78 108.27, 52.9 76.61, 120.72 0.27 M0.8 150.42 C33.16 113.18, 66.51 73.87, 131.35 0.23 M0.8 150.42 C51.63 92.76, 101.11 35.53, 131.35 0.23 M0.93 162.46 C58.39 98.03, 111.64 34.87, 141.98 0.2 M0.93 162.46 C37.94 120.21, 76.6 76.44, 141.98 0.2 M0.41 175.26 C52.51 112.99, 104.48 55.51, 151.96 0.92 M0.41 175.26 C53.17 111.68, 107.73 50.3, 151.96 0.92 M0.54 187.3 C34.79 148.64, 68.07 110.22, 161.28 2.39 M0.54 187.3 C32.84 147.79, 65.73 110.82, 161.28 2.39 M1.33 198.58 C40 155.37, 76.81 108.95, 169.28 5.38 M1.33 198.58 C68.91 122.47, 136.12 44.12, 169.28 5.38 M4.09 207.61 C45.28 159.56, 89.8 110.34, 175.32 10.63 M4.09 207.61 C62.93 136.93, 124.37 66.3, 175.32 10.63 M9.47 213.61 C44.24 175.19, 78.76 135.86, 179.39 18.14 M9.47 213.61 C55.69 160.83, 102.84 106.06, 179.39 18.14 M16.16 218.1 C71.73 152.23, 127.1 89.1, 180.83 28.67 M16.16 218.1 C74.78 148.68, 133.89 80.2, 180.83 28.67 M24.82 220.33 C85.95 150.72, 148.88 80.13, 181.62 39.96 M24.82 220.33 C77.13 160.61, 129.91 99.59, 181.62 39.96 M34.8 221.05 C80.21 167.52, 127.62 116.61, 181.76 52 M34.8 221.05 C76.81 173.31, 118.88 124.5, 181.76 52 M45.43 221.02 C81.83 175.03, 122.96 131.14, 181.23 64.79 M45.43 221.02 C97.98 160.78, 151.1 99.28, 181.23 64.79 M56.06 220.98 C91.46 180.77, 122.37 139.65, 181.37 76.83 M56.06 220.98 C96.16 171.23, 139.71 123.82, 181.37 76.83 M66.69 220.95 C91.82 192.56, 115.31 166.25, 181.5 88.87 M66.69 220.95 C93.9 190.62, 123.97 157.74, 181.5 88.87 M77.32 220.91 C111.21 177.11, 149.81 134.72, 181.63 100.92 M77.32 220.91 C110.37 182.76, 144.86 143.46, 181.63 100.92 M87.95 220.88 C111.4 193.36, 136.95 166.06, 181.77 112.96 M87.95 220.88 C121.39 181.54, 156.01 140.97, 181.77 112.96 M98.58 220.85 C129.74 185.02, 156.03 154.24, 181.24 125.75 M98.58 220.85 C116.28 200.5, 132.14 181.23, 181.24 125.75 M109.21 220.81 C134.63 193, 155.54 166.57, 181.38 137.79 M109.21 220.81 C125.86 202.99, 139.62 186.11, 181.38 137.79 M119.84 220.78 C139.41 200.04, 156.7 177.27, 181.51 149.83 M119.84 220.78 C142.6 196.69, 165.1 170.08, 181.51 149.83 M130.47 220.74 C147.26 201.51, 165.1 182.6, 181.64 161.87 M130.47 220.74 C145.49 202.65, 160.78 184.39, 181.64 161.87 M140.44 221.46 C153.84 207.2, 165.99 194.83, 181.78 173.92 M140.44 221.46 C151.2 206.95, 163.39 195.57, 181.78 173.92 M151.07 221.43 C161.45 209.63, 174.36 194.73, 181.25 186.71 M151.07 221.43 C161.79 209.71, 171.41 196.43, 181.25 186.71 M163.67 219.13 C167.84 215.57, 171.3 208.15, 180.07 200.26 M163.67 219.13 C167.74 213.34, 173.51 208.15, 180.07 200.26" stroke="#ffc9c9" stroke-width="1" fill="none"></path><path d="M32 0 C55.66 -0.13, 80.82 -0.18, 149 0 M32 0 C71.13 -0.24, 111.21 0.13, 149 0 M149 0 C169.57 -0.66, 182.78 9.36, 181 32 M149 0 C170.84 1.57, 182.55 11.34, 181 32 M181 32 C180.27 72.42, 178.79 117.56, 181 189 M181 32 C182.47 84.64, 182.4 137.96, 181 189 M181 189 C180.23 212.05, 168.64 220.49, 149 221 M181 189 C181.68 208.39, 170.77 219.66, 149 221 M149 221 C120.48 221.65, 91.57 218.4, 32 221 M149 221 C112.72 221.68, 77.09 221.67, 32 221 M32 221 C9.86 221.89, 0.06 209.87, 0 189 M32 221 C8.79 221.43, 0.03 209.2, 0 189 M0 189 C-1.22 153.85, 0.64 122.17, 0 32 M0 189 C-0.95 146.02, 0.57 102.7, 0 32 M0 32 C1.05 8.86, 9.28 -0.6, 32 0 M0 32 C-1.38 11.24, 11.31 1.91, 32 0" stroke="#1e1e1e" stroke-width="2" fill="none"></path></g><g stroke-linecap="round" transform="translate(250 79) rotate(0 111 52)"><path d="M11.23 29.64 C11.23 29.64, 11.23 29.64, 11.23 29.64 M11.23 29.64 C11.23 29.64, 11.23 29.64, 11.23 29.64 M1.52 53 C7.5 43.44, 13.88 37.96, 34.98 14.51 M1.52 53 C12.8 39.44, 22.73 27.64, 34.98 14.51 M4.93 61.27 C23.84 39.04, 40.64 20.57, 50.2 9.19 M4.93 61.27 C19.48 45.47, 34.64 27.06, 50.2 9.19 M8.35 69.53 C24.79 54.22, 37.44 35.91, 63.46 6.14 M8.35 69.53 C29.79 46.12, 49.95 21.45, 63.46 6.14 M14.39 74.78 C29.17 57.9, 44.82 39.47, 77.37 2.33 M14.39 74.78 C37.62 47.8, 60.51 20.88, 77.37 2.33 M20.42 80.03 C35.54 63, 52.03 44.36, 88.65 1.54 M20.42 80.03 C41.3 55.2, 63.28 30.81, 88.65 1.54 M26.46 85.28 C49.76 60.6, 72.6 33.2, 99.94 0.75 M26.46 85.28 C51.74 56.58, 77.27 25.48, 99.94 0.75 M33.15 89.77 C55.4 61.2, 81.56 35.6, 110.57 0.72 M33.15 89.77 C58.48 60.7, 82.22 31.6, 110.57 0.72 M41.16 92.76 C72.33 56.84, 100.18 23.11, 121.86 -0.07 M41.16 92.76 C70.22 60.72, 98.33 28.15, 121.86 -0.07 M49.82 94.99 C71.81 71.36, 89.98 46.63, 131.17 1.4 M49.82 94.99 C81.74 58.55, 114.32 20.91, 131.17 1.4 M59.14 96.46 C76.81 75.35, 98.26 53.66, 140.49 2.88 M59.14 96.46 C79.56 71.67, 101.13 48.91, 140.49 2.88 M67.8 98.69 C94.38 66.58, 120.17 37.94, 149.81 4.35 M67.8 98.69 C97.6 66.28, 126.65 33.66, 149.81 4.35 M76.46 100.92 C107.07 63.4, 141.59 26.65, 159.13 5.83 M76.46 100.92 C99.24 73.13, 122.58 45.12, 159.13 5.83 M86.44 101.64 C119.25 63.22, 149.39 25.55, 168.45 7.3 M86.44 101.64 C103.42 80.54, 122.31 60.51, 168.45 7.3 M96.41 102.36 C121.98 72.72, 149.43 43.57, 176.45 10.29 M96.41 102.36 C118.53 75.23, 141.73 49.27, 176.45 10.29 M106.39 103.08 C132.85 71, 161.55 39.45, 183.8 14.02 M106.39 103.08 C130.82 74.15, 153.94 47.87, 183.8 14.02 M116.36 103.8 C131.73 82.17, 151.15 61.37, 191.15 17.76 M116.36 103.8 C135.61 83.22, 153.3 60.42, 191.15 17.76 M127.65 103.01 C148.76 77.36, 166.22 57.32, 198.5 21.5 M127.65 103.01 C148.77 79.82, 169.11 55.83, 198.5 21.5 M139.59 101.47 C159.32 75.06, 184.41 54.42, 205.19 26 M139.59 101.47 C162.85 73.92, 184.28 48.77, 205.19 26 M150.88 100.68 C165.39 83.23, 182.01 67.15, 210.58 32 M150.88 100.68 C170.03 79.33, 188.21 59.01, 210.58 32 M162.82 99.13 C177.29 81.62, 192.34 65.42, 215.96 38 M162.82 99.13 C180.45 80.12, 196.38 58.66, 215.96 38 M179.35 92.31 C195.51 76.6, 208.66 57.22, 221.34 44.01 M179.35 92.31 C192.06 78.47, 204.48 62.37, 221.34 44.01 M195.89 85.48 C203.07 77.86, 211.87 64.75, 220.16 57.56 M195.89 85.48 C203.81 76.58, 212.49 66.54, 220.16 57.56" stroke="#a5d8ff" stroke-width="1" fill="none"></path><path d="M126.09 -0.37 C140.28 -0.4, 156.79 3.2, 169.48 7.14 C182.18 11.08, 193.67 17.15, 202.27 23.28 C210.88 29.41, 218.23 36.93, 221.11 43.93 C224 50.93, 223.48 58.61, 219.57 65.29 C215.67 71.96, 206.95 78.5, 197.67 83.98 C188.38 89.45, 176.89 94.88, 163.86 98.12 C150.82 101.37, 134.49 103.11, 119.45 103.43 C104.41 103.75, 88.02 102.25, 73.62 100.05 C59.22 97.85, 43.87 95.12, 33.04 90.23 C22.21 85.34, 14.24 77.44, 8.62 70.7 C3 63.96, -1.14 56.68, -0.67 49.8 C-0.2 42.91, 4.77 35.73, 11.45 29.38 C18.13 23.03, 27.96 16.4, 39.4 11.69 C50.84 6.99, 64.14 2.77, 80.08 1.17 C96.03 -0.42, 124.61 1.87, 135.06 2.13 C145.51 2.38, 143.11 2.01, 142.78 2.68 M151.02 3.99 C165.22 5.78, 181.33 10.08, 191.97 15.28 C202.6 20.47, 210.05 28.27, 214.82 35.16 C219.58 42.04, 221.29 49.76, 220.57 56.61 C219.86 63.46, 217.09 70.1, 210.52 76.26 C203.94 82.42, 193.23 89.19, 181.11 93.55 C168.99 97.91, 152.68 100.96, 137.82 102.41 C122.96 103.87, 106.65 103.45, 91.94 102.31 C77.24 101.16, 62.08 99.29, 49.58 95.56 C37.08 91.83, 24.99 85.78, 16.94 79.93 C8.88 74.07, 3.32 67.35, 1.27 60.43 C-0.79 53.5, 0.57 45.14, 4.6 38.39 C8.64 31.64, 15.79 25.52, 25.48 19.92 C35.17 14.32, 49.26 7.96, 62.75 4.79 C76.23 1.63, 91.62 0.97, 106.38 0.93 C121.14 0.88, 143.58 4.03, 151.29 4.53 C159.01 5.03, 153.24 3.35, 152.68 3.94" stroke="#1e1e1e" stroke-width="2" fill="none"></path></g><g stroke-linecap="round" transform="translate(801 85) rotate(0 111 52)"><path d="M10.79 29.25 C10.79 29.25, 10.79 29.25, 10.79 29.25 M10.79 29.25 C10.79 29.25, 10.79 29.25, 10.79 29.25 M0.42 53.37 C6.94 45.55, 17.9 34.71, 32.57 16.39 M0.42 53.37 C6.82 45.35, 14.09 37.26, 32.57 16.39 M3.84 61.64 C21.9 43.77, 35.04 26.78, 48.45 10.31 M3.84 61.64 C20.79 41.76, 38.22 20.39, 48.45 10.31 M7.91 69.15 C25.52 51.87, 42.58 28.85, 61.7 7.26 M7.91 69.15 C28.03 45.3, 50.14 21.74, 61.7 7.26 M13.94 74.4 C36.42 47.79, 58.86 19.36, 74.96 4.21 M13.94 74.4 C35.93 50.71, 56.56 25.22, 74.96 4.21 M19.98 79.64 C38.62 60.13, 55.22 39.45, 86.9 2.66 M19.98 79.64 C38.31 61.1, 53.75 41.69, 86.9 2.66 M26.67 84.14 C49.65 57.86, 71.95 31.27, 97.53 2.63 M26.67 84.14 C52.42 54.1, 77.47 23.61, 97.53 2.63 M33.37 88.63 C49.35 69.22, 65.12 49.77, 108.82 1.84 M33.37 88.63 C59.41 59.93, 85.38 29.06, 108.82 1.84 M41.37 91.62 C59.4 72.82, 72.82 52, 120.1 1.05 M41.37 91.62 C63.61 67.55, 86.79 42.27, 120.1 1.05 M49.38 94.6 C78.74 63.96, 106.91 28.96, 130.08 1.77 M49.38 94.6 C64.92 75.51, 82.73 56.16, 130.08 1.77 M58.04 96.83 C77.09 72.78, 96.92 47.09, 139.39 3.25 M58.04 96.83 C89.81 60.42, 122.35 21.73, 139.39 3.25 M66.7 99.06 C88.83 76.04, 109.67 49.77, 148.71 4.72 M66.7 99.06 C94.16 65.43, 123.68 32.5, 148.71 4.72 M74.71 102.04 C98.75 76.64, 121.72 47.29, 158.03 6.2 M74.71 102.04 C108.85 63.81, 141.96 26.76, 158.03 6.2 M84.68 102.76 C100.71 82.23, 121 63.42, 167.35 7.67 M84.68 102.76 C107.63 77.12, 129.59 52.57, 167.35 7.67 M94.66 103.48 C117.27 75.61, 141.08 50.93, 175.35 10.66 M94.66 103.48 C115.26 80.13, 134.9 57.84, 175.35 10.66 M104.63 104.21 C129.97 75.95, 152.21 49.88, 182.7 14.39 M104.63 104.21 C135.16 67.87, 166.25 32.71, 182.7 14.39 M114.61 104.93 C139.24 77.17, 163.05 47.18, 190.05 18.13 M114.61 104.93 C136.75 79.63, 157.71 56.22, 190.05 18.13 M125.89 104.14 C146.22 79.17, 169.18 53.79, 198.06 21.12 M125.89 104.14 C141.55 87.25, 156.11 69.1, 198.06 21.12 M138.49 101.84 C163.8 73.99, 185.8 45.72, 204.75 25.61 M138.49 101.84 C160.02 77.73, 181.61 53.38, 204.75 25.61 M150.43 100.29 C173.56 73.12, 195.49 46.38, 210.79 30.86 M150.43 100.29 C167.8 81, 184.62 60.6, 210.79 30.86 M163.03 98 C177.55 80.99, 190.28 64.33, 216.17 36.86 M163.03 98 C180.65 78.09, 200.41 55.01, 216.17 36.86 M178.25 92.68 C194.45 71.69, 212.44 52.35, 221.55 42.87 M178.25 92.68 C188.79 81.2, 199.11 69.03, 221.55 42.87 M194.13 86.61 C201.05 78.89, 203.75 74.97, 220.37 56.42 M194.13 86.61 C200.83 78.9, 206.91 71.85, 220.37 56.42" stroke="#ffec99" stroke-width="1" fill="none"></path><path d="M126.33 0.68 C140.96 0.9, 157.2 4.18, 169.99 8.03 C182.79 11.87, 194.56 18.07, 203.1 23.74 C211.64 29.41, 218.64 35.12, 221.22 42.03 C223.79 48.95, 222.34 58.09, 218.55 65.22 C214.75 72.34, 207.47 79.4, 198.45 84.79 C189.44 90.17, 177.58 94.23, 164.45 97.53 C151.32 100.83, 134.94 103.95, 119.66 104.58 C104.38 105.2, 86.93 103.73, 72.77 101.29 C58.62 98.84, 45.45 94.96, 34.73 89.9 C24.01 84.84, 14.3 77.36, 8.44 70.92 C2.59 64.48, -0.82 58.21, -0.4 51.24 C0.02 44.26, 4.2 35.64, 10.95 29.06 C17.69 22.49, 28.44 16.16, 40.07 11.77 C51.71 7.38, 65.78 4.43, 80.76 2.73 C95.73 1.02, 121.07 1.64, 129.9 1.55 C138.72 1.45, 134.01 1.49, 133.71 2.14 M65.75 4.84 C78.51 1.05, 97.11 -0.72, 112.21 -0.88 C127.31 -1.04, 142.66 0.99, 156.36 3.88 C170.06 6.78, 184.44 11.03, 194.42 16.49 C204.4 21.94, 211.87 29.74, 216.26 36.61 C220.66 43.48, 222.12 50.79, 220.8 57.69 C219.47 64.59, 215.64 71.73, 208.31 78.03 C200.99 84.33, 189.16 91.22, 176.86 95.48 C164.56 99.75, 149.22 102.16, 134.51 103.62 C119.8 105.08, 103.49 105.81, 88.62 104.25 C73.76 102.68, 57.38 98.69, 45.32 94.23 C33.26 89.78, 23.8 83.66, 16.27 77.53 C8.75 71.4, 2.05 64.34, 0.17 57.48 C-1.71 50.62, 0.48 43.22, 5 36.36 C9.52 29.51, 17.04 21.59, 27.29 16.35 C37.55 11.1, 59.87 6.59, 66.53 4.88 C73.18 3.17, 66.68 5.23, 67.21 6.1" stroke="#1e1e1e" stroke-width="2" fill="none"></path></g><g stroke-linecap="round" transform="translate(511 289) rotate(0 111 52)"><path d="M7.56 33.07 C7.56 33.07, 7.56 33.07, 7.56 33.07 M7.56 33.07 C7.56 33.07, 7.56 33.07, 7.56 33.07 M0.48 53.41 C11.94 37.26, 27.18 26.19, 32.62 16.43 M0.48 53.41 C9.89 41.08, 19.73 31.23, 32.62 16.43 M3.89 61.68 C18.47 47.71, 32.31 30.46, 47.19 11.87 M3.89 61.68 C18.58 46.09, 31.77 29.56, 47.19 11.87 M7.96 69.19 C22.59 51.56, 41.02 33.03, 62.41 6.55 M7.96 69.19 C24.18 50.88, 39.47 33.46, 62.41 6.55 M12.03 76.71 C34.91 50.58, 60.05 22.1, 75.67 3.5 M12.03 76.71 C32.77 53.19, 52.66 30.1, 75.67 3.5 M19.38 80.45 C45.58 47.93, 70.44 20.64, 86.95 2.71 M19.38 80.45 C42.4 53.83, 67.5 24.22, 86.95 2.71 M26.07 84.94 C50.53 56.46, 77.13 25.24, 97.58 2.68 M26.07 84.94 C49.01 62.19, 69.72 37.4, 97.58 2.68 M33.42 88.68 C61.42 55.69, 90.66 21.94, 108.87 1.89 M33.42 88.68 C63.01 56.18, 91.49 21.57, 108.87 1.89 M40.77 92.42 C60.62 70.82, 80.66 47.01, 119.5 1.85 M40.77 92.42 C70.03 59.25, 98.02 27.35, 119.5 1.85 M49.43 94.65 C71.33 65.09, 98.34 36.29, 129.47 2.57 M49.43 94.65 C72.63 66.02, 96.93 39.34, 129.47 2.57 M58.1 96.88 C80.31 68.72, 103.95 42.75, 138.79 4.05 M58.1 96.88 C80.78 69.42, 104.24 44.21, 138.79 4.05 M66.76 99.11 C91.19 71.17, 113.48 44.75, 148.76 4.77 M66.76 99.11 C88.84 75.84, 108.27 51.42, 148.76 4.77 M75.42 101.34 C92.99 81.71, 111.05 61.68, 158.08 6.24 M75.42 101.34 C104.11 67.97, 132.49 35.94, 158.08 6.24 M84.74 102.81 C101.96 83.37, 120.82 63.03, 166.74 8.47 M84.74 102.81 C106.35 76.53, 131.52 50.58, 166.74 8.47 M95.37 102.78 C126.32 69.39, 154.49 35.05, 174.75 11.46 M95.37 102.78 C121.46 72.92, 145.5 44.44, 174.75 11.46 M106 102.74 C128.57 77.36, 147.31 54.37, 182.76 14.44 M106 102.74 C124.14 82.65, 142.61 62.44, 182.76 14.44 M116.63 102.71 C140.33 75.6, 167.5 47.1, 190.76 17.43 M116.63 102.71 C139.4 77.91, 159.82 51.77, 190.76 17.43 M127.26 102.67 C156.81 72.52, 183.97 38.36, 198.11 21.16 M127.26 102.67 C143.57 83.75, 161.41 64.01, 198.11 21.16 M139.2 101.13 C159.67 75.32, 186.14 50.43, 204.15 26.41 M139.2 101.13 C153.77 83.9, 169.48 67.17, 204.15 26.41 M151.8 98.83 C165.25 82.82, 180.45 65.68, 210.19 31.66 M151.8 98.83 C164.74 82.18, 179.21 65.32, 210.19 31.66 M163.74 97.29 C179.87 76.72, 198.11 58.3, 216.22 36.91 M163.74 97.29 C174.07 83.88, 186.63 71.77, 216.22 36.91 M178.31 92.72 C194.77 72.85, 208.57 56.88, 219.64 45.18 M178.31 92.72 C188.78 78.95, 200.44 67.63, 219.64 45.18 M196.15 84.39 C203.16 76.9, 212.17 65.73, 221.08 55.71 M196.15 84.39 C200.98 77.62, 206.45 71.65, 221.08 55.71" stroke="#b2f2bb" stroke-width="1" fill="none"></path><path d="M119.2 1.05 C133.5 0.81, 150.16 3.27, 163.46 6.58 C176.76 9.89, 189.83 15.42, 199 20.91 C208.16 26.41, 214.75 32.91, 218.46 39.55 C222.18 46.18, 223.9 53.81, 221.28 60.74 C218.66 67.67, 211.37 75.19, 202.74 81.13 C194.11 87.08, 182.37 92.78, 169.51 96.41 C156.66 100.05, 140.38 101.97, 125.6 102.94 C110.81 103.92, 95.08 104.03, 80.8 102.25 C66.52 100.48, 51.57 96.76, 39.9 92.28 C28.23 87.81, 17.48 81.92, 10.76 75.38 C4.03 68.83, 0.11 60.02, -0.45 53 C-1.01 45.98, 1.57 39.55, 7.38 33.27 C13.2 27, 23.4 20.43, 34.46 15.36 C45.52 10.3, 58.54 5.32, 73.75 2.89 C88.95 0.46, 115.71 1.08, 125.68 0.79 C135.66 0.5, 133.85 0.38, 133.6 1.17 M121.61 -1.11 C136.31 -1.19, 154.33 3.86, 167.58 7.39 C180.83 10.93, 192.53 14.26, 201.12 20.09 C209.71 25.93, 216.2 35.23, 219.11 42.4 C222.02 49.58, 221.72 56.41, 218.59 63.15 C215.46 69.89, 208.86 77.44, 200.35 82.84 C191.83 88.25, 180.56 91.83, 167.48 95.56 C154.4 99.28, 137 104.26, 121.89 105.2 C106.78 106.13, 90.86 103.32, 76.79 101.15 C62.73 98.98, 48.53 96.94, 37.47 92.18 C26.41 87.42, 16.8 79.19, 10.43 72.59 C4.06 65.98, -0.4 59.68, -0.75 52.56 C-1.1 45.44, 2.1 36.3, 8.34 29.87 C14.58 23.43, 25.29 18.35, 36.67 13.94 C48.05 9.54, 62.1 5.53, 76.62 3.44 C91.14 1.35, 116.46 1.55, 123.81 1.41 C131.16 1.27, 121.28 1.81, 120.71 2.6" stroke="#1e1e1e" stroke-width="2" fill="none"></path></g><g stroke-linecap="round" transform="translate(12 10) rotate(0 85 37.5)"><path d="M18.75 0 C57.37 -0.31, 90.28 -1.46, 151.25 0 M18.75 0 C62.11 -1.6, 108.07 -0.81, 151.25 0 M151.25 0 C161.95 1.05, 169.58 7.99, 170 18.75 M151.25 0 C162.7 1.3, 170.55 4.99, 170 18.75 M170 18.75 C171.53 31.69, 170.56 42, 170 56.25 M170 18.75 C170.01 33.56, 169.89 48.31, 170 56.25 M170 56.25 C171.65 68.3, 164.2 76.02, 151.25 75 M170 56.25 C172.06 69.01, 162.59 74.06, 151.25 75 M151.25 75 C110.32 74.03, 67.34 76.05, 18.75 75 M151.25 75 C104.97 76.55, 60.38 76.31, 18.75 75 M18.75 75 C7.4 77, -1.77 67.84, 0 56.25 M18.75 75 C7.43 72.85, -0.02 69.84, 0 56.25 M0 56.25 C0.16 43.25, -0.29 29.35, 0 18.75 M0 56.25 C0.49 41.65, -0.18 28.04, 0 18.75 M0 18.75 C1.99 5.19, 4.79 0.8, 18.75 0 M0 18.75 C-0.04 6.06, 5.49 1.3, 18.75 0" stroke="#1e1e1e" stroke-width="2" fill="none"></path></g><g stroke-linecap="round" transform="translate(10 95.5) rotate(0 85 37.5)"><path d="M18.75 0 C60.99 -0.01, 100.11 1.77, 151.25 0 M18.75 0 C71.73 -0.46, 124.44 0.07, 151.25 0 M151.25 0 C164.26 0.13, 171.14 6.39, 170 18.75 M151.25 0 C164.8 -0.68, 169.03 5.88, 170 18.75 M170 18.75 C168.01 25.91, 170.45 34.68, 170 56.25 M170 18.75 C170.16 31.46, 169.5 41.61, 170 56.25 M170 56.25 C169.75 70.54, 165.28 76.56, 151.25 75 M170 56.25 C171.21 67.93, 165.4 75.97, 151.25 75 M151.25 75 C112.58 75.61, 77.53 73.7, 18.75 75 M151.25 75 C123.54 74.52, 96.55 74.04, 18.75 75 M18.75 75 C5.44 74.99, -1.31 67.98, 0 56.25 M18.75 75 C4.02 74.54, -0.27 69.35, 0 56.25 M0 56.25 C-1.39 42.93, 0.59 32.83, 0 18.75 M0 56.25 C-0.17 44.57, 0.21 30.97, 0 18.75 M0 18.75 C-1.64 8.15, 7.02 -1.59, 18.75 0 M0 18.75 C2.15 7.96, 7.44 -0.54, 18.75 0" stroke="#1e1e1e" stroke-width="2" fill="none"></path></g><g stroke-linecap="round" transform="translate(13 183.5) rotate(0 85 37.5)"><path d="M18.75 0 C54.77 -1.94, 87.81 -3.07, 151.25 0 M18.75 0 C63.61 0.23, 108.41 0.12, 151.25 0 M151.25 0 C163.16 -0.85, 169.68 4.55, 170 18.75 M151.25 0 C162.94 -0.01, 167.87 5.21, 170 18.75 M170 18.75 C171.62 30.65, 169.65 45.03, 170 56.25 M170 18.75 C170.54 27.7, 170.42 35.65, 170 56.25 M170 56.25 C169.29 70.18, 164.6 74.6, 151.25 75 M170 56.25 C171.16 69.14, 161.91 75.45, 151.25 75 M151.25 75 C108.13 73.29, 66.27 73.5, 18.75 75 M151.25 75 C101.42 73.81, 51.22 73.49, 18.75 75 M18.75 75 C5.85 74.77, 0.52 69.51, 0 56.25 M18.75 75 C6.98 75.67, -1.46 68.01, 0 56.25 M0 56.25 C-0.47 42.65, -0.75 32.08, 0 18.75 M0 56.25 C1.3 44.69, -0.45 33.3, 0 18.75 M0 18.75 C1.48 7.28, 5.78 -1.17, 18.75 0 M0 18.75 C0.57 5.19, 4.86 1.03, 18.75 0" stroke="#1e1e1e" stroke-width="2" fill="none"></path></g><g transform="translate(88 37) rotate(0 13.34000015258789 12.5)"><text x="0" y="0" font-family="Virgil, Segoe UI Emoji" font-size="20px" fill="#1e1e1e" text-anchor="start" style="white-space: pre;" direction="ltr" dominant-baseline="text-before-edge">OS</text></g><g transform="translate(48 123) rotate(0 44.70000076293945 12.5)"><text x="0" y="0" font-family="Virgil, Segoe UI Emoji" font-size="20px" fill="#1e1e1e" text-anchor="start" style="white-space: pre;" direction="ltr" dominant-baseline="text-before-edge">Hardware</text></g><g transform="translate(63 211) rotate(0 36.77000045776367 12.5)"><text x="0" y="0" font-family="Virgil, Segoe UI Emoji" font-size="20px" fill="#1e1e1e" text-anchor="start" style="white-space: pre;" direction="ltr" dominant-baseline="text-before-edge">Runtime</text></g><g transform="translate(300 116) rotate(0 57.862003326416016 17.5)"><text x="0" y="0" font-family="Virgil, Segoe UI Emoji" font-size="28px" fill="#1e1e1e" text-anchor="start" style="white-space: pre;" direction="ltr" dominant-baseline="text-before-edge">Profilers</text></g><g stroke-linecap="round"><g transform="translate(243.00100631335295 132) rotate(0 -30.500503156676473 0)"><path d="M-0.55 0.22 C-10.8 0.49, -51.14 1.26, -61.17 1.07 M1.36 -0.72 C-9.09 -0.7, -51.76 -0.6, -62.21 -0.49" stroke="#1e1e1e" stroke-width="2" fill="none"></path></g><g transform="translate(243.00100631335295 132) rotate(0 -30.500503156676473 0)"><path d="M-38.77 -9.18 C-46.11 -6.73, -52.35 -3.12, -62.21 -0.49 M-38.77 -9.18 C-43.69 -6.99, -49.61 -4.32, -62.21 -0.49" stroke="#1e1e1e" stroke-width="2" fill="none"></path></g><g transform="translate(243.00100631335295 132) rotate(0 -30.500503156676473 0)"><path d="M-38.67 7.92 C-45.96 4.78, -52.23 2.8, -62.21 -0.49 M-38.67 7.92 C-43.52 6.25, -49.46 5.05, -62.21 -0.49" stroke="#1e1e1e" stroke-width="2" fill="none"></path></g></g><mask></mask><g stroke-linecap="round"><g transform="translate(248.00343322317184 128.0041416660485) rotate(0 -31.50171661158592 -38.00207083302425)"><path d="M0.57 0.06 C-10.23 -12.43, -53.23 -62.23, -63.99 -75.01 M-0.59 -0.96 C-11.09 -13.75, -51.63 -64.17, -61.79 -76.62" stroke="#1e1e1e" stroke-width="2" fill="none"></path></g><g transform="translate(248.00343322317184 128.0041416660485) rotate(0 -31.50171661158592 -38.00207083302425)"><path d="M-40.36 -63.74 C-48.09 -69.98, -54.37 -74.62, -61.79 -76.62 M-40.36 -63.74 C-45.16 -66.47, -51.59 -70.79, -61.79 -76.62" stroke="#1e1e1e" stroke-width="2" fill="none"></path></g><g transform="translate(248.00343322317184 128.0041416660485) rotate(0 -31.50171661158592 -38.00207083302425)"><path d="M-53.66 -52.98 C-56.51 -63.22, -57.93 -71.8, -61.79 -76.62 M-53.66 -52.98 C-55.1 -58.41, -58.23 -65.4, -61.79 -76.62" stroke="#1e1e1e" stroke-width="2" fill="none"></path></g></g><mask></mask><g stroke-linecap="round"><g transform="translate(248.03431983794906 139.95555299675448) rotate(0 -30.517159918974528 39.52222350162276)"><path d="M-0.04 0.52 C-10.31 13.94, -51.48 67.12, -61.53 80.12 M-1.52 -0.26 C-12 12.88, -52.86 65.26, -62.73 78.56" stroke="#1e1e1e" stroke-width="2" fill="none"></path></g><g transform="translate(248.03431983794906 139.95555299675448) rotate(0 -30.517159918974528 39.52222350162276)"><path d="M-55.26 54.7 C-56.8 61.28, -58.18 70.67, -62.73 78.56 M-55.26 54.7 C-58.17 60.61, -59.74 66.8, -62.73 78.56" stroke="#1e1e1e" stroke-width="2" fill="none"></path></g><g transform="translate(248.03431983794906 139.95555299675448) rotate(0 -30.517159918974528 39.52222350162276)"><path d="M-41.67 65.09 C-47.39 68.44, -52.99 74.61, -62.73 78.56 M-41.67 65.09 C-47.96 68.31, -53 71.85, -62.73 78.56" stroke="#1e1e1e" stroke-width="2" fill="none"></path></g></g><mask></mask><g transform="translate(213 176.5) rotate(0 44.78000259399414 12.5)"><text x="0" y="0" font-family="Virgil, Segoe UI Emoji" font-size="20px" fill="#1e1e1e" text-anchor="start" style="white-space: pre;" direction="ltr" dominant-baseline="text-before-edge">measures</text></g><g stroke-linecap="round"><g transform="translate(476.9677390090658 129.33827380005465) rotate(0 25.51613049546711 -0.14615100039500817)"><path d="M-0.91 0.96 C7.58 1, 41.34 -0.25, 50.17 -0.3 M0.81 0.42 C9.75 0.71, 43.93 1.5, 52.43 1.23" stroke="#1e1e1e" stroke-width="2" fill="none"></path></g><g transform="translate(476.9677390090658 129.33827380005465) rotate(0 25.51613049546711 -0.14615100039500817)"><path d="M28.94 9.78 C36.01 6.55, 39.83 7.73, 52.43 1.23 M28.94 9.78 C37.3 7.29, 46.43 3.4, 52.43 1.23" stroke="#1e1e1e" stroke-width="2" fill="none"></path></g><g transform="translate(476.9677390090658 129.33827380005465) rotate(0 25.51613049546711 -0.14615100039500817)"><path d="M28.94 -7.33 C35.94 -6.6, 39.75 -1.47, 52.43 1.23 M28.94 -7.33 C37.44 -3.3, 46.57 -0.68, 52.43 1.23" stroke="#1e1e1e" stroke-width="2" fill="none"></path></g></g><mask></mask><g transform="translate(447 179) rotate(0 38.560001373291016 12.5)"><text x="0" y="0" font-family="Virgil, Segoe UI Emoji" font-size="20px" fill="#1e1e1e" text-anchor="start" style="white-space: pre;" direction="ltr" dominant-baseline="text-before-edge">outputs</text></g><g transform="translate(571 78) rotate(0 47.922000885009766 52.5)"><text x="0" y="0" font-family="Virgil, Segoe UI Emoji" font-size="28px" fill="#1e1e1e" text-anchor="start" style="white-space: pre;" direction="ltr" dominant-baseline="text-before-edge">Profile</text><text x="0" y="35" font-family="Virgil, Segoe UI Emoji" font-size="28px" fill="#1e1e1e" text-anchor="start" style="white-space: pre;" direction="ltr" dominant-baseline="text-before-edge">Data</text><text x="0" y="70" font-family="Virgil, Segoe UI Emoji" font-size="28px" fill="#1e1e1e" text-anchor="start" style="white-space: pre;" direction="ltr" dominant-baseline="text-before-edge">Format</text></g><g transform="translate(543 325) rotate(0 73.5 17.5)"><text x="0" y="0" font-family="Virgil, Segoe UI Emoji" font-size="28px" fill="#1e1e1e" text-anchor="start" style="white-space: pre;" direction="ltr" dominant-baseline="text-before-edge">Converters</text></g><g stroke-linecap="round"><g transform="translate(715 136.9981305661422) rotate(0 39.500484410236254 0.5003812458698746)"><path d="M0.22 0.15 C13.18 0.37, 65.94 0.21, 78.92 0.54 M-1.12 -0.81 C11.56 -0.37, 64.33 1.64, 77.93 1.84" stroke="#1e1e1e" stroke-width="2" fill="none"></path></g><g transform="translate(715 136.9981305661422) rotate(0 39.500484410236254 0.5003812458698746)"><path d="M54.21 9.73 C64 6.4, 72.46 1.86, 77.93 1.84 M54.21 9.73 C64.11 6.91, 73.78 3.28, 77.93 1.84" stroke="#1e1e1e" stroke-width="2" fill="none"></path></g><g transform="translate(715 136.9981305661422) rotate(0 39.500484410236254 0.5003812458698746)"><path d="M54.69 -7.36 C64.18 -3.86, 72.45 -1.56, 77.93 1.84 M54.69 -7.36 C64.3 -3.44, 73.78 -0.33, 77.93 1.84" stroke="#1e1e1e" stroke-width="2" fill="none"></path></g></g><mask></mask><g transform="translate(833 120) rotate(0 78.20399475097656 17.5)"><text x="0" y="0" font-family="Virgil, Segoe UI Emoji" font-size="28px" fill="#1e1e1e" text-anchor="start" style="white-space: pre;" direction="ltr" dominant-baseline="text-before-edge">Analysis UI</text></g><g stroke-linecap="round"><g transform="translate(587.0254989558231 246.0000000000001) rotate(0 0.22102952648674545 21.555913850157197)"><path d="M-0.48 0.36 C-0.35 7.59, 0.37 36.38, 0.43 43.55 M0.28 0.07 C0.36 7.14, -0.12 35.75, -0.01 42.81" stroke="#1e1e1e" stroke-width="2" fill="none"></path></g><g transform="translate(587.0254989558231 246.0000000000001) rotate(0 0.22102952648674545 21.555913850157197)"><path d="M-7.33 22.53 C-4.86 27.48, -2.94 31.46, -0.01 42.81 M-7.33 22.53 C-5.1 29.16, -2.15 36.11, -0.01 42.81" stroke="#1e1e1e" stroke-width="2" fill="none"></path></g><g transform="translate(587.0254989558231 246.0000000000001) rotate(0 0.22102952648674545 21.555913850157197)"><path d="M7.42 22.57 C6.3 27.45, 4.63 31.41, -0.01 42.81 M7.42 22.57 C4.55 29.15, 2.41 36.08, -0.01 42.81" stroke="#1e1e1e" stroke-width="2" fill="none"></path></g></g><mask></mask><g stroke-linecap="round"><g transform="translate(647.4528018024976 280.99824968131657) rotate(0 -0.047363690182066875 -18.999124840658283)"><path d="M0.29 0 C0.28 -6.19, -0.19 -31.17, -0.26 -37.55 M-0.23 -0.48 C-0.3 -6.78, -0.73 -32.07, -0.78 -38.29" stroke="#1e1e1e" stroke-width="2" fill="none"></path></g><g transform="translate(647.4528018024976 280.99824968131657) rotate(0 -0.047363690182066875 -18.999124840658283)"><path d="M5.95 -20.52 C4.28 -25.36, 3.33 -29.75, -0.78 -38.29 M5.95 -20.52 C3.87 -24.87, 2.71 -29.63, -0.78 -38.29" stroke="#1e1e1e" stroke-width="2" fill="none"></path></g><g transform="translate(647.4528018024976 280.99824968131657) rotate(0 -0.047363690182066875 -18.999124840658283)"><path d="M-7.04 -20.35 C-5.37 -25.27, -2.98 -29.7, -0.78 -38.29 M-7.04 -20.35 C-5.87 -24.69, -3.77 -29.49, -0.78 -38.29" stroke="#1e1e1e" stroke-width="2" fill="none"></path></g></g><mask></mask><g transform="translate(730 175) rotate(0 22.130001068115234 12.5)"><text x="0" y="0" font-family="Virgil, Segoe UI Emoji" font-size="20px" fill="#1e1e1e" text-anchor="start" style="white-space: pre;" direction="ltr" dominant-baseline="text-before-edge">read</text></g></svg>